<svg width="56" height="56" viewBox="0 0 56 56" fill="none" xmlns="http://www.w3.org/2000/svg">
<path fill-rule="evenodd" clip-rule="evenodd" d="M40.8359 6.4165C41.8024 6.4165 42.5859 7.20001 42.5859 8.1665V13.4165H47.8359C48.8024 13.4165 49.5859 14.2 49.5859 15.1665C49.5859 16.133 48.8024 16.9165 47.8359 16.9165H42.5859V22.1665C42.5859 23.133 41.8024 23.9165 40.8359 23.9165C39.8694 23.9165 39.0859 23.133 39.0859 22.1665V16.9165H33.8359C32.8694 16.9165 32.0859 16.133 32.0859 15.1665C32.0859 14.2 32.8694 13.4165 33.8359 13.4165H39.0859V8.1665C39.0859 7.20001 39.8694 6.4165 40.8359 6.4165Z" fill="#4fafbb"/>
<path d="M4.66406 15.1665C4.66406 10.2168 4.66406 7.74188 6.20175 6.20419C7.73944 4.6665 10.2143 4.6665 15.1641 4.6665C20.1138 4.6665 22.5887 4.6665 24.1264 6.20419C25.6641 7.74188 25.6641 10.2168 25.6641 15.1665C25.6641 20.1163 25.6641 22.5911 24.1264 24.1288C22.5887 25.6665 20.1138 25.6665 15.1641 25.6665C10.2143 25.6665 7.73944 25.6665 6.20175 24.1288C4.66406 22.5911 4.66406 20.1163 4.66406 15.1665Z" fill="#4fafbb"/>
<path d="M30.3359 40.8335C30.3359 35.8837 30.3359 33.4089 31.8736 31.8712C33.4113 30.3335 35.8862 30.3335 40.8359 30.3335C45.7857 30.3335 48.2606 30.3335 49.7982 31.8712C51.3359 33.4089 51.3359 35.8837 51.3359 40.8335C51.3359 45.7832 51.3359 48.2581 49.7982 49.7958C48.2606 51.3335 45.7857 51.3335 40.8359 51.3335C35.8862 51.3335 33.4113 51.3335 31.8736 49.7958C30.3359 48.2581 30.3359 45.7832 30.3359 40.8335Z" fill="#4fafbb"/>
<path d="M4.66406 40.8335C4.66406 35.8837 4.66406 33.4089 6.20175 31.8712C7.73944 30.3335 10.2143 30.3335 15.1641 30.3335C20.1138 30.3335 22.5887 30.3335 24.1264 31.8712C25.6641 33.4089 25.6641 35.8837 25.6641 40.8335C25.6641 45.7832 25.6641 48.2581 24.1264 49.7958C22.5887 51.3335 20.1138 51.3335 15.1641 51.3335C10.2143 51.3335 7.73944 51.3335 6.20175 49.7958C4.66406 48.2581 4.66406 45.7832 4.66406 40.8335Z" fill="#4fafbb"/>
</svg>
