<svg width="16" height="16" viewBox="0 0 16 16" fill="none" xmlns="http://www.w3.org/2000/svg">
<path d="M12.8356 5L3.83538 5C3.74426 5.00027 3.65494 5.02377 3.57703 5.06797C3.49913 5.11216 3.4356 5.17539 3.39327 5.25084C3.35094 5.32629 3.33142 5.4111 3.33681 5.49615C3.34221 5.5812 3.3723 5.66326 3.42387 5.73351L7.924 11.811C8.1105 12.063 8.55951 12.063 8.74652 11.811L13.2466 5.73351C13.2987 5.66341 13.3293 5.58131 13.335 5.49612C13.3407 5.41092 13.3213 5.32591 13.2789 5.2503C13.2365 5.17469 13.1728 5.11138 13.0947 5.06725C13.0165 5.02313 12.9269 4.99987 12.8356 5Z" fill="#11BBE3"/>
</svg>
