<svg width="33" height="32" viewBox="0 0 33 32" fill="none" xmlns="http://www.w3.org/2000/svg">
<path fill-rule="evenodd" clip-rule="evenodd" d="M11.4989 6.68477C11.4988 6.6788 11.4987 6.67282 11.4987 6.66683V5.3335C11.4987 2.57207 13.7373 0.333496 16.4987 0.333496C19.2601 0.333496 21.4987 2.57207 21.4987 5.3335V6.66683C21.4987 6.67282 21.4986 6.6788 21.4985 6.68477C23.2284 6.73316 24.282 6.91207 25.0887 7.57346C26.1947 8.48009 26.5025 10.0194 27.1182 13.0979L27.9182 17.0979C28.8037 21.5251 29.2464 23.7387 28.0462 25.2028C26.8459 26.6668 24.5885 26.6668 20.0736 26.6668H12.9238C8.40886 26.6668 6.15141 26.6668 4.95118 25.2028C3.75095 23.7387 4.19368 21.5251 5.07912 17.0979L5.87912 13.0979C6.49483 10.0194 6.80268 8.48009 7.9086 7.57346C8.71538 6.91206 9.76901 6.73316 11.4989 6.68477ZM13.4987 5.3335C13.4987 3.67664 14.8418 2.3335 16.4987 2.3335C18.1556 2.3335 19.4987 3.67664 19.4987 5.3335V6.66683C19.4987 6.66682 19.4987 6.66683 19.4987 6.66683C19.4246 6.66682 19.3495 6.66683 19.2736 6.66683H13.7238C13.6478 6.66683 13.5728 6.66683 13.4987 6.66684C13.4987 6.66684 13.4987 6.66685 13.4987 6.66684V5.3335ZM16.4992 20.3335C15.1945 20.3335 14.082 19.5001 13.6696 18.3336C13.4856 17.8129 12.9143 17.5399 12.3936 17.724C11.8728 17.908 11.5999 18.4794 11.784 19.0001C12.4699 20.9407 14.3206 22.3335 16.4992 22.3335C18.6778 22.3335 20.5285 20.9407 21.2144 19.0001C21.3985 18.4794 21.1256 17.908 20.6048 17.724C20.0841 17.5399 19.5128 17.8129 19.3288 18.3336C18.9164 19.5001 17.8039 20.3335 16.4992 20.3335Z" fill="white"/>
</svg>
