<svg width="24" height="24" viewBox="0 0 24 24" fill="none" xmlns="http://www.w3.org/2000/svg">
<path fill-rule="evenodd" clip-rule="evenodd" d="M8.24914 5.01346C8.24906 5.00898 8.24902 5.00449 8.24902 5V4C8.24902 1.92893 9.92796 0.25 11.999 0.25C14.0701 0.25 15.749 1.92893 15.749 4V5C15.749 5.0045 15.749 5.00898 15.7489 5.01346C17.0463 5.04975 17.8365 5.18393 18.4416 5.67997C19.271 6.35995 19.5019 7.5144 19.9637 9.8233L20.5637 12.8233C21.2277 16.1437 21.5598 17.8039 20.6596 18.902C19.7594 20 18.0664 20 14.6802 20H9.31783C5.93165 20 4.23856 20 3.33839 18.902C2.43822 17.8039 2.77026 16.1437 3.43434 12.8233L4.03434 9.8233C4.49612 7.5144 4.72701 6.35995 5.55645 5.67997C6.16153 5.18392 6.95176 5.04975 8.24914 5.01346ZM9.74902 4C9.74902 2.75736 10.7564 1.75 11.999 1.75C13.2417 1.75 14.249 2.75736 14.249 4V5C14.249 5 14.249 5 14.249 5C14.1934 4.99999 14.1371 5 14.0802 5H9.91783C9.86087 5 9.80461 5 9.74902 5.00001C9.74902 5.00001 9.74902 5.00001 9.74902 5.00001V4ZM11.9994 15.25C11.0209 15.25 10.1865 14.625 9.87724 13.7501C9.7392 13.3595 9.31071 13.1548 8.92017 13.2929C8.52963 13.4309 8.32494 13.8594 8.46298 14.2499C8.97741 15.7054 10.3655 16.75 11.9994 16.75C13.6333 16.75 15.0214 15.7054 15.5358 14.2499C15.6739 13.8594 15.4692 13.4309 15.0786 13.2929C14.6881 13.1548 14.2596 13.3595 14.1216 13.7501C13.8123 14.625 12.9779 15.25 11.9994 15.25Z" fill="#01B7E1"/>
</svg>
