<svg width="56" height="56" viewBox="0 0 56 56" fill="none" xmlns="http://www.w3.org/2000/svg">
<path d="M32.6641 9.3335H23.3307C14.5312 9.3335 10.1314 9.3335 7.39773 12.0672C5.42947 14.0354 4.87837 16.8674 4.72407 21.5835H51.2707C51.1164 16.8674 50.5653 14.0354 48.5971 12.0672C45.8634 9.3335 41.4636 9.3335 32.6641 9.3335Z" fill="#4fafbb"/>
<path d="M23.3307 46.6668H32.6641C41.4636 46.6668 45.8634 46.6668 48.5971 43.9332C51.3307 41.1995 51.3307 36.7997 51.3307 28.0002C51.3307 26.969 51.3307 25.9982 51.3263 25.0835H4.66846C4.66406 25.9982 4.66406 26.969 4.66406 28.0002C4.66406 36.7997 4.66406 41.1995 7.39773 43.9332C10.1314 46.6668 14.5312 46.6668 23.3307 46.6668Z" fill="#4fafbb"/>
<path fill-rule="evenodd" clip-rule="evenodd" d="M12.2474 37.3335C12.2474 36.367 13.0309 35.5835 13.9974 35.5835H23.3307C24.2972 35.5835 25.0807 36.367 25.0807 37.3335C25.0807 38.3 24.2972 39.0835 23.3307 39.0835H13.9974C13.0309 39.0835 12.2474 38.3 12.2474 37.3335Z" fill="white"/>
<path fill-rule="evenodd" clip-rule="evenodd" d="M27.4141 37.3335C27.4141 36.367 28.1976 35.5835 29.1641 35.5835H32.6641C33.6306 35.5835 34.4141 36.367 34.4141 37.3335C34.4141 38.3 33.6306 39.0835 32.6641 39.0835H29.1641C28.1976 39.0835 27.4141 38.3 27.4141 37.3335Z" fill="white"/>
</svg>
