<svg width="41" height="40" viewBox="0 0 41 40" fill="none" xmlns="http://www.w3.org/2000/svg">
<rect x="0.666992" width="40" height="40" rx="17.6506" fill="#DFFAFF"/>
<path d="M23.1553 12H19.1553C15.384 12 13.4984 12 12.3268 13.1716C11.4833 14.0151 11.2471 15.2288 11.181 17.25H31.1296C31.0634 15.2288 30.8272 14.0151 29.9837 13.1716C28.8121 12 26.9265 12 23.1553 12Z" fill="#01B7E1"/>
<path d="M19.1553 28H23.1553C26.9265 28 28.8121 28 29.9837 26.8284C31.1553 25.6569 31.1553 23.7712 31.1553 20C31.1553 19.5581 31.1553 19.142 31.1534 18.75H11.1572C11.1553 19.142 11.1553 19.5581 11.1553 20C11.1553 23.7712 11.1553 25.6569 12.3268 26.8284C13.4984 28 15.384 28 19.1553 28Z" fill="#01B7E1"/>
<path fill-rule="evenodd" clip-rule="evenodd" d="M14.4053 24C14.4053 23.5858 14.7411 23.25 15.1553 23.25H19.1553C19.5695 23.25 19.9053 23.5858 19.9053 24C19.9053 24.4142 19.5695 24.75 19.1553 24.75H15.1553C14.7411 24.75 14.4053 24.4142 14.4053 24Z" fill="white"/>
<path fill-rule="evenodd" clip-rule="evenodd" d="M20.9053 24C20.9053 23.5858 21.2411 23.25 21.6553 23.25H23.1553C23.5695 23.25 23.9053 23.5858 23.9053 24C23.9053 24.4142 23.5695 24.75 23.1553 24.75H21.6553C21.2411 24.75 20.9053 24.4142 20.9053 24Z" fill="white"/>
</svg>
