<svg width="56" height="56" viewBox="0 0 56 56" fill="none" xmlns="http://www.w3.org/2000/svg">
<path d="M51.3307 27.9998C51.3307 40.8865 40.884 51.3332 27.9974 51.3332C15.1108 51.3332 4.66406 40.8865 4.66406 27.9998C4.66406 15.1132 15.1108 4.6665 27.9974 4.6665C40.884 4.6665 51.3307 15.1132 51.3307 27.9998Z" fill="#4fafbb"/>
<path fill-rule="evenodd" clip-rule="evenodd" d="M27.9974 16.9165C28.9639 16.9165 29.7474 17.7 29.7474 18.6665V27.275L35.0682 32.5957C35.7516 33.2792 35.7516 34.3872 35.0682 35.0706C34.3848 35.754 33.2767 35.754 32.5933 35.0706L26.76 29.2373C26.4318 28.9091 26.2474 28.464 26.2474 27.9998V18.6665C26.2474 17.7 27.0309 16.9165 27.9974 16.9165Z" fill="white"/>
</svg>
