<svg width="25" height="24" viewBox="0 0 25 24" fill="none" xmlns="http://www.w3.org/2000/svg">
<path d="M11.0835 19.5C11.0835 19.5 9.8335 19.5 9.8335 18.25C9.8335 17 11.0835 13.25 16.0835 13.25C21.0835 13.25 22.3335 17 22.3335 18.25C22.3335 19.5 21.0835 19.5 21.0835 19.5H11.0835ZM16.0835 12C17.0781 12 18.0319 11.6049 18.7351 10.9017C19.4384 10.1984 19.8335 9.24456 19.8335 8.25C19.8335 7.25544 19.4384 6.30161 18.7351 5.59835C18.0319 4.89509 17.0781 4.5 16.0835 4.5C15.0889 4.5 14.1351 4.89509 13.4318 5.59835C12.7286 6.30161 12.3335 7.25544 12.3335 8.25C12.3335 9.24456 12.7286 10.1984 13.4318 10.9017C14.1351 11.6049 15.0889 12 16.0835 12ZM8.8535 19.5C8.66828 19.1097 8.57587 18.6819 8.5835 18.25C8.5835 16.5562 9.4335 14.8125 11.0035 13.6C10.22 13.358 9.40347 13.24 8.5835 13.25C3.5835 13.25 2.3335 17 2.3335 18.25C2.3335 19.5 3.5835 19.5 3.5835 19.5H8.8535ZM7.9585 12C8.7873 12 9.58215 11.6708 10.1682 11.0847C10.7543 10.4987 11.0835 9.7038 11.0835 8.875C11.0835 8.0462 10.7543 7.25134 10.1682 6.66529C9.58215 6.07924 8.7873 5.75 7.9585 5.75C7.12969 5.75 6.33484 6.07924 5.74879 6.66529C5.16274 7.25134 4.8335 8.0462 4.8335 8.875C4.8335 9.7038 5.16274 10.4987 5.74879 11.0847C6.33484 11.6708 7.12969 12 7.9585 12Z" fill="#01B7E1"/>
</svg>
