<svg width="41" height="40" viewBox="0 0 41 40" fill="none" xmlns="http://www.w3.org/2000/svg">
<rect x="0.333008" width="40" height="40" rx="17.6506" fill="#DFFAFF"/>
<path d="M20.3105 18C22.5197 18 24.3105 16.2091 24.3105 14C24.3105 11.7909 22.5197 10 20.3105 10C18.1014 10 16.3105 11.7909 16.3105 14C16.3105 16.2091 18.1014 18 20.3105 18Z" fill="#01B7E1"/>
<path d="M11.0383 13.818C10.9379 13.4162 10.5307 13.1719 10.1288 13.2723C9.72698 13.3728 9.48266 13.78 9.58312 14.1818L9.96508 15.7097C10.6698 18.5287 12.8066 20.7495 15.5607 21.5787L15.5607 26.0519C15.5607 26.9504 15.5607 27.6996 15.6406 28.2944C15.725 28.9222 15.9107 29.489 16.3662 29.9445C16.8217 30.3999 17.3885 30.5856 18.0162 30.67C18.611 30.75 19.3602 30.75 20.2587 30.7499H20.3627C21.2612 30.75 22.0104 30.75 22.6052 30.67C23.233 30.5856 23.7998 30.3999 24.2553 29.9445C24.7107 29.489 24.8964 28.9222 24.9808 28.2944C25.0608 27.6996 25.0608 26.9504 25.0607 26.052L25.0607 21.859C26.0419 22.1514 26.7913 23.0039 26.9164 24.067L27.5659 29.5876C27.6143 29.9989 27.987 30.2932 28.3983 30.2448C28.8097 30.1964 29.104 29.8237 29.0556 29.4123L28.4061 23.8918C28.1618 21.815 26.4018 20.2499 24.3107 20.2499H16.3952C13.9518 19.6764 12.0301 17.7852 11.4203 15.3459L11.0383 13.818Z" fill="#01B7E1"/>
</svg>
