<svg width="25" height="24" viewBox="0 0 25 24" fill="none" xmlns="http://www.w3.org/2000/svg">
<path d="M11.6634 22.9498V20.9498C9.58005 20.7165 7.79238 19.8541 6.30038 18.3628C4.80838 16.8715 3.94605 15.0838 3.71338 12.9998H1.71338V10.9998H3.71338C3.94671 8.91647 4.80938 7.1288 6.30138 5.6368C7.79338 4.1448 9.58071 3.28247 11.6634 3.0498V1.0498H13.6634V3.0498C15.7467 3.28314 17.5344 4.1458 19.0264 5.6378C20.5184 7.12981 21.3807 8.91714 21.6134 10.9998H23.6134V12.9998H21.6134C21.38 15.0831 20.5177 16.8708 19.0264 18.3628C17.535 19.8548 15.7474 20.7171 13.6634 20.9498V22.9498H11.6634ZM12.6634 18.9998C14.5967 18.9998 16.2467 18.3165 17.6134 16.9498C18.98 15.5831 19.6634 13.9331 19.6634 11.9998C19.6634 10.0665 18.98 8.41647 17.6134 7.0498C16.2467 5.68314 14.5967 4.9998 12.6634 4.9998C10.73 4.9998 9.08005 5.68314 7.71338 7.0498C6.34671 8.41647 5.66338 10.0665 5.66338 11.9998C5.66338 13.9331 6.34671 15.5831 7.71338 16.9498C9.08005 18.3165 10.73 18.9998 12.6634 18.9998ZM12.6634 15.9998C11.5634 15.9998 10.6217 15.6081 9.83838 14.8248C9.05505 14.0415 8.66338 13.0998 8.66338 11.9998C8.66338 10.8998 9.05505 9.95814 9.83838 9.1748C10.6217 8.39147 11.5634 7.9998 12.6634 7.9998C13.7634 7.9998 14.705 8.39147 15.4884 9.1748C16.2717 9.95814 16.6634 10.8998 16.6634 11.9998C16.6634 13.0998 16.2717 14.0415 15.4884 14.8248C14.705 15.6081 13.7634 15.9998 12.6634 15.9998Z" fill="#01B7E1"/>
</svg>
