<svg width="20" height="20" viewBox="0 0 20 20" fill="none" xmlns="http://www.w3.org/2000/svg">
<path fill-rule="evenodd" clip-rule="evenodd" d="M15.4165 11.6665C13.8057 11.6665 12.4998 12.8818 12.4998 14.3809C12.4998 15.8683 13.4307 17.604 14.8831 18.2247C15.2217 18.3693 15.6113 18.3693 15.9499 18.2247C17.4023 17.604 18.3332 15.8683 18.3332 14.3809C18.3332 12.8818 17.0273 11.6665 15.4165 11.6665ZM15.4165 15.4165C15.8767 15.4165 16.2498 15.0434 16.2498 14.5832C16.2498 14.1229 15.8767 13.7498 15.4165 13.7498C14.9563 13.7498 14.5832 14.1229 14.5832 14.5832C14.5832 15.0434 14.9563 15.4165 15.4165 15.4165Z" fill="#4fafbb"/>
<path fill-rule="evenodd" clip-rule="evenodd" d="M4.58317 1.6665C2.97234 1.6665 1.6665 2.8818 1.6665 4.38094C1.6665 5.86833 2.5974 7.60397 4.04981 8.22465C4.38839 8.36934 4.77795 8.36934 5.11653 8.22465C6.56894 7.60397 7.49984 5.86833 7.49984 4.38094C7.49984 2.8818 6.194 1.6665 4.58317 1.6665ZM4.58317 5.4165C5.04341 5.4165 5.4165 5.04341 5.4165 4.58317C5.4165 4.12293 5.04341 3.74984 4.58317 3.74984C4.12293 3.74984 3.74984 4.12293 3.74984 4.58317C3.74984 5.04341 4.12293 5.4165 4.58317 5.4165Z" fill="#4fafbb"/>
<path fill-rule="evenodd" clip-rule="evenodd" d="M9.37476 4.1665C9.37476 3.82133 9.65458 3.5415 9.99976 3.5415H13.443C15.7357 3.5415 16.6076 6.53567 14.6733 7.76656L5.99728 13.2877C5.11807 13.8472 5.51439 15.2082 6.55652 15.2082H8.49087L8.30781 15.0251C8.06374 14.781 8.06374 14.3853 8.30781 14.1412C8.55189 13.8972 8.94762 13.8972 9.1917 14.1412L10.4417 15.3912C10.6858 15.6353 10.6858 16.031 10.4417 16.2751L9.1917 17.5251C8.94762 17.7692 8.55189 17.7692 8.30781 17.5251C8.06374 17.281 8.06374 16.8853 8.30781 16.6412L8.49087 16.4582H6.55652C4.26382 16.4582 3.39194 13.464 5.32619 12.2331L14.0022 6.71198C14.8814 6.15249 14.4851 4.7915 13.443 4.7915H9.99976C9.65458 4.7915 9.37476 4.51168 9.37476 4.1665Z" fill="#4fafbb"/>
</svg>
