<svg width="40" height="40" viewBox="0 0 40 40" fill="none" xmlns="http://www.w3.org/2000/svg">
<rect width="40" height="40" rx="17.6506" fill="#DFFAFF"/>
<path fill-rule="evenodd" clip-rule="evenodd" d="M20 10C16.2288 10 14.3431 10 13.1716 11.1716C12.1085 12.2347 12.01 13.8857 12.0009 17H11C10.4477 17 10 17.4477 10 18V19C10 19.3148 10.1482 19.6111 10.4 19.8L12 21C12.0091 24.1143 12.1085 25.7653 13.1716 26.8284C13.4138 27.0706 13.6864 27.2627 14 27.4151V28.9999C14 29.5522 14.4477 29.9999 15 29.9999H16.5C17.0523 29.9999 17.5 29.5522 17.5 28.9999V27.9815C18.2271 28 19.0542 28 20 28C20.9458 28 21.7729 28 22.5 27.9815V28.9999C22.5 29.5522 22.9477 29.9999 23.5 29.9999H25C25.5523 29.9999 26 29.5522 26 28.9999V27.4151C26.3136 27.2627 26.5862 27.0706 26.8284 26.8284C27.8915 25.7653 27.9909 24.1143 28 21L29.6 19.8C29.8518 19.6111 30 19.3148 30 19V18C30 17.4477 29.5523 17 29 17H27.9991C27.99 13.8857 27.8915 12.2347 26.8284 11.1716C25.6569 10 23.7712 10 20 10ZM13.5 17.5C13.5 18.9142 13.5 19.6213 13.9393 20.0607C14.3787 20.5 15.0858 20.5 16.5 20.5H20H23.5C24.9142 20.5 25.6213 20.5 26.0607 20.0607C26.5 19.6213 26.5 18.9142 26.5 17.5V15C26.5 13.5858 26.5 12.8787 26.0607 12.4393C25.6213 12 24.9142 12 23.5 12H20H16.5C15.0858 12 14.3787 12 13.9393 12.4393C13.5 12.8787 13.5 13.5858 13.5 15V17.5ZM14.25 24C14.25 23.5858 14.5858 23.25 15 23.25H16.5C16.9142 23.25 17.25 23.5858 17.25 24C17.25 24.4142 16.9142 24.75 16.5 24.75H15C14.5858 24.75 14.25 24.4142 14.25 24ZM25.75 24C25.75 23.5858 25.4142 23.25 25 23.25H23.5C23.0858 23.25 22.75 23.5858 22.75 24C22.75 24.4142 23.0858 24.75 23.5 24.75H25C25.4142 24.75 25.75 24.4142 25.75 24Z" fill="#01B7E1"/>
</svg>
