<svg width="20" height="20" viewBox="0 0 20 20" fill="none" xmlns="http://www.w3.org/2000/svg">
<path d="M2.5 5.43635C2.5 5.1076 2.77226 4.84111 3.10811 4.84111H7.09823C7.10364 4.14009 7.17962 3.17904 7.87531 2.51374C8.4228 1.99016 9.1734 1.6665 9.99999 1.6665C10.8266 1.6665 11.5772 1.99016 12.1247 2.51374C12.8204 3.17904 12.8963 4.14008 12.9018 4.84111H16.8919C17.2277 4.84111 17.5 5.1076 17.5 5.43635C17.5 5.76509 17.2277 6.03158 16.8919 6.03158H3.10811C2.77226 6.03158 2.5 5.76509 2.5 5.43635Z" fill="#4fafbb"/>
<path d="M9.67213 18.3332H10.3279C12.5842 18.3332 13.7123 18.3332 14.4458 17.6138C15.1793 16.8945 15.2543 15.7145 15.4044 13.3546L15.6206 9.95417C15.7021 8.67371 15.7428 8.03348 15.3748 7.62777C15.0069 7.22206 14.3855 7.22206 13.1427 7.22206H6.85737C5.61458 7.22206 4.99319 7.22206 4.62522 7.62777C4.25725 8.03348 4.29797 8.67371 4.3794 9.95417L4.59566 13.3546C4.74574 15.7145 4.82078 16.8945 5.55427 17.6138C6.28776 18.3332 7.41589 18.3332 9.67213 18.3332Z" fill="#4fafbb"/>
</svg>
