<svg width="105" height="40" viewBox="0 0 105 40" fill="none" xmlns="http://www.w3.org/2000/svg">
<path d="M34.418 11.6612H41.676V16.6009H34.418V11.6612ZM34.418 18.8657H41.676V37.8042H34.418V18.8657ZM45.4209 28.3884C45.4209 25.4995 46.3957 23.1218 48.3454 21.2553C50.2952 19.3769 52.9285 18.4377 56.2454 18.4377C60.0379 18.4377 62.903 19.5374 64.8409 21.7368C66.3983 23.5082 67.177 25.6897 67.177 28.2814C67.177 31.1941 66.2081 33.5838 64.2702 35.4503C62.3443 37.3049 59.6753 38.2322 56.2632 38.2322C53.2198 38.2322 50.7588 37.4594 48.8804 35.9139C46.574 33.9999 45.4209 31.4914 45.4209 28.3884ZM52.6967 28.3706C52.6967 30.0588 53.0355 31.3071 53.7131 32.1155C54.4027 32.9239 55.2646 33.3281 56.2989 33.3281C57.3451 33.3281 58.2011 32.9299 58.8668 32.1333C59.5445 31.3368 59.8833 30.0588 59.8833 28.2993C59.8833 26.6586 59.5445 25.4401 58.8668 24.6435C58.1892 23.8351 57.3511 23.4309 56.3524 23.4309C55.2943 23.4309 54.4205 23.8411 53.731 24.6614C53.0414 25.4698 52.6967 26.7062 52.6967 28.3706ZM70.9219 11.6612H78.1977V37.8042H70.9219V11.6612ZM89.4502 25.0002L82.5132 24.269C82.7748 23.0564 83.1493 22.1053 83.6367 21.4158C84.136 20.7144 84.8494 20.108 85.7767 19.5968C86.4424 19.2283 87.3578 18.943 88.5229 18.7408C89.688 18.5387 90.9482 18.4377 92.3035 18.4377C94.4791 18.4377 96.2267 18.5625 97.5464 18.8122C98.866 19.05 99.9657 19.5552 100.845 20.328C101.464 20.863 101.951 21.6238 102.308 22.6106C102.664 23.5854 102.843 24.5187 102.843 25.4103V33.774C102.843 34.6656 102.896 35.367 103.003 35.8782C103.122 36.3776 103.372 37.0196 103.752 37.8042H96.94C96.6666 37.3168 96.4883 36.9482 96.4051 36.6986C96.3218 36.437 96.2386 36.0328 96.1554 35.4859C95.2043 36.4013 94.2592 37.0552 93.32 37.4475C92.036 37.9706 90.544 38.2322 88.8439 38.2322C86.5851 38.2322 84.8672 37.7091 83.6902 36.6629C82.5251 35.6167 81.9426 34.3268 81.9426 32.7932C81.9426 31.3546 82.3646 30.1717 83.2087 29.2444C84.0528 28.3171 85.6102 27.6276 87.8809 27.1758C90.6034 26.6289 92.3689 26.2485 93.1773 26.0345C93.9857 25.8086 94.8417 25.5173 95.7452 25.1607C95.7452 24.269 95.561 23.6449 95.1924 23.2882C94.8239 22.9316 94.1759 22.7532 93.2486 22.7532C92.0598 22.7532 91.1681 22.9435 90.5737 23.3239C90.1101 23.6211 89.7356 24.1799 89.4502 25.0002ZM95.7452 28.8164C94.7466 29.1731 93.7064 29.4881 92.6245 29.7616C91.1503 30.1539 90.217 30.5403 89.8247 30.9207C89.4205 31.313 89.2184 31.7589 89.2184 32.2582C89.2184 32.8288 89.4146 33.2984 89.8069 33.667C90.2111 34.0236 90.7996 34.202 91.5723 34.202C92.3808 34.202 93.1298 34.0058 93.8193 33.6135C94.5207 33.2211 95.0141 32.7456 95.2994 32.1868C95.5966 31.6162 95.7452 30.8791 95.7452 29.9756V28.8164Z" fill="url(#paint0_linear_743_7124)"/>
<g clip-path="url(#clip0_743_7124)">
<path d="M22.9241 24.4563C25.283 23.5873 27.1934 22.2221 28.6552 20.3608C30.1171 18.4996 30.8477 16.0909 30.8473 13.1347V13.0302C30.8473 9.23939 29.6236 6.28309 27.1762 4.16135C24.7289 2.03961 21.3044 0.978502 16.9027 0.978027H0V37.4998C4.58749 37.4998 8.60925 34.4191 9.69355 30.0162C10.8427 25.3503 11.3271 20.5617 11.0584 15.6339C8.03463 16.538 5.68812 18.8785 3.57365 21.7112C2.66316 16.5304 5.40075 14.2747 9.38805 13.3784C8.50109 12.0838 5.34037 11.798 1.56506 11.6659C4.54632 7.63516 9.53558 8.26167 12.3904 11.8956C14.0819 7.5933 17.2864 5.58772 21.8415 7.80222C19.2127 8.82262 17.1078 10.2705 15.657 12.2505C21.1017 11.0411 23.9576 12.4887 24.0615 16.7616C21.5093 15.2266 18.522 13.8169 16.4711 14.5269C19.8461 16.984 20.298 19.4244 19.262 22.296C17.8542 19.3135 16.1744 16.7545 14.0395 16.0098C14.0485 19.8092 14.4199 25.501 15.5552 30.1898C16.5937 34.4786 20.4809 37.4998 24.9455 37.4998H31.9565L22.9241 24.4563Z" fill="url(#paint1_linear_743_7124)"/>
</g>
<defs>
<linearGradient id="paint0_linear_743_7124" x1="31.957" y1="23.3042" x2="105.957" y2="23.3042" gradientUnits="userSpaceOnUse">
<stop stop-color="#26AACC"/>
<stop offset="1" stop-color="#6DD5ED"/>
</linearGradient>
<linearGradient id="paint1_linear_743_7124" x1="0" y1="19.2389" x2="31.9565" y2="19.2389" gradientUnits="userSpaceOnUse">
<stop stop-color="#2193B0"/>
<stop offset="1" stop-color="#6DD5ED"/>
</linearGradient>
<clipPath id="clip0_743_7124">
<rect width="31.9565" height="36.5217" fill="white" transform="translate(0 0.978027)"/>
</clipPath>
</defs>
</svg>
